Genre:Comedy
Language:English 
http://www.imdb.com/title/tt1605630/
Source:RiPRG Thanks!
Encoder:Tony

Format : AVI
Format/Info : Audio Video Interleave
File size : 994 MiB
Duration : 1h 44mn
Overall bit rate mode : Variable
Overall bit rate : 1 330 Kbps

Video
ID : 0
Format : MPEG-4 Visual
Format profile : Advanced Simple@L5
Format settings, BVOP : 2
Format settings, QPel : No
Format settings, GMC : No warppoints
Format settings, Matrix : Default (H.263)
Muxing mode : Packed bitstream
Codec ID : XVID
Codec ID/Hint : XviD
Duration : 1h 44mn
Bit rate : 1 228 Kbps
Width : 640 pixels
Height : 360 pixels
Display aspect ratio : 16:9
Frame rate : 29.970 fps
Color space : YUV
Chroma subsampling : 4:2:0
Bit depth : 8 bits
Scan type : Progressive
Compression mode : Lossy
Bits/(Pixel*Frame) : 0.178
Stream size : 918 MiB (92%)
Writing library : XviD 62

Audio
ID : 1
Format : MPEG Audio
Format version : Version 1
Format profile : Layer 3
Mode : Joint stereo
Mode extension : MS Stereo
Codec ID : 55
Codec ID/Hint : MP3
Duration : 1h 44mn
Bit rate mode : Variable
Bit rate : 90.6 Kbps
Minimum bit rate : 32.0 Kbps
Channel(s) : 2 channels
Sampling rate : 32.0 KHz
Compression mode : Lossy
Stream size : 67.7 MiB (7%)
Alignment : Aligned on interleaves
Interleave, duration : 36 ms (1.08 video frame)

Plot:
Jim, Michelle, Stifler, and their friends reunite in East Great Falls, Michigan for their high school reunion.
 
http://img525.imageshack.us/img525/299/vlcsnap2012042422h03m47.png 
http://img600.imageshack.us/img600/1609/vlcsnap2012042422h04m22.png 
http://img839.imageshack.us/img839/6819/vlcsnap2012042422h04m47.png 
http://img692.imageshack.us/img692/1296/vlcsnap2012042422h05m25d.png